<svg xmlns="http://www.w3.org/2000/svg" width="18" height="20"><title>refresh</title><desc>Created with Sketch.</desc><g fill="none"><g fill="#AB1725" fill-rule="nonzero" stroke="#AB1725"><g><path d="M16.3 10.72c0 1-.18 1.94-.56 2.84-.37.86-.9 1.64-1.57 2.3-.67.68-1.45 1.2-2.32 1.57-.9.38-1.86.57-2.85.57-1 0-1.95-.2-2.85-.57-.87-.37-1.65-.9-2.32-1.56-.67-.67-1.2-1.45-1.57-2.3-.38-.9-.57-1.86-.57-2.85 0-.98.18-1.93.56-2.83.37-.87.9-1.65 1.57-2.32.67-.67 1.45-1.2 2.32-1.56.9-.38 1.86-.57 2.85-.57 1.5 0 2.98.46 4.2 1.32L10.77 6c-.2.02-.32.2-.3.38.04.17.2.3.35.3.02 0 .04-.02.06-.02L14.1 5.3c.2-.02.33-.2.3-.38L13.26 1.3c-.03-.2-.2-.33-.4-.3-.18.04-.3.2-.28.4l.98 2.8C12.24 3.26 10.64 2.75 9 2.75c-1.08 0-2.13.22-3.1.63-.97.4-1.82.97-2.56 1.7-.73.73-1.3 1.58-1.7 2.53C1.2 8.6 1 9.65 1 10.73c0 1.07.2 2.1.63 3.1.4.94.98 1.8 1.7 2.52.75.73 1.6 1.3 2.56 1.7.97.42 2.02.63 3.1.63s2.13-.2 3.1-.62c.97-.4 1.82-.98 2.56-1.7.73-.74 1.3-1.6 1.7-2.54.43-.98.64-2.02.64-3.1 0-.18-.15-.34-.34-.34-.2 0-.35.16-.35.34z"/></g></g></g></svg>