<svg xmlns="http://www.w3.org/2000/svg" width="120" height="13" xmlns:xlink="http://www.w3.org/1999/xlink"><title>RV-logo</title><desc>Created with Sketch.</desc><defs><path id="a" d="M0 18h132V0H0z"/></defs><g fill="none"><g><g transform="translate(-660 -1324) translate(654 1322)"><path fill="#AB1725" d="M10.05 8.8c.93 0 1.2-.45 1.2-.82 0-.3-.2-.8-.98-.8H9.2V8.8h.85zM14.4 13h-2.46l-1.8-3.07H9.2v1.88h1V13H6v-1.2h1.1V7.2H6V6h5.02c1.57 0 2.42.9 2.42 1.96 0 .8-.45 1.37-1.4 1.74l1.32 2.1h1.04V13z"/><path fill="#AB1725" d="M18 11.8h.97V7.2H18V6h7.2v2.22h-1.56V7.2H21.1v1.6h2.05v1.18H21.1v1.83h2.54v-1.03h1.56V13H18z"/><path fill="#AB1725" d="M31.6 11.8c1.55 0 2.28-.88 2.28-2.27 0-1.5-.83-2.34-2.35-2.34h-.7v4.6h.77zm-4 0h1.2V7.2h-1.2V6h4.1c1.4 0 2.4.24 3.18.95.8.7 1.12 1.6 1.12 2.57 0 1.8-1.26 3.48-3.74 3.48H27.6v-1.2z"/><path fill="#000" d="M45.36 7.18h-.96V6h4.04v1.18h-.93l1.36 3.48h.03l1.36-3.48h-.9V6h3.44v1.18h-.96L49.47 13h-1.65z"/><path fill="#000" d="M55.2 11.8h.96V7.2h-.96V6h7.2v2.22h-1.56V7.2H58.3v1.6h2.05v1.18H58.3v1.83h2.54v-1.03h1.56V13h-7.2z"/><path fill="#000" d="M64.8 11.8h1.16V7.2H64.8V6h3.63l3.17 4.37h.03V7.2H70.5V6h3.9v1.2h-1.22V13h-1.95l-3.7-5.14h-.02v3.95h1.1V13h-3.8z"/><path fill="#000" d="M84 8.8h-1.38V7.2h-1.2v4.6h1.2V13h-4.44v-1.2h1.2V7.2h-1.2v1.6H76.8V6H84z"/><path fill="#000" d="M87.6 6h3.53v1.17h-.66v3.52c0 .67.22 1.13.98 1.13.64 0 1.05-.3 1.05-1.08V7.17h-.62V6h2.92v1.17h-.95v3.87c0 1.6-1.54 1.96-2.6 1.96-1.5 0-2.76-.52-2.76-2.2V7.16h-.9V6z"/><path fill="#000" d="M102.45 8.8c.93 0 1.2-.45 1.2-.82 0-.3-.2-.8-.98-.8h-1.07V8.8h.85zm4.35 4.2h-2.46l-1.8-3.07h-.94v1.88h1V13h-4.2v-1.2h1.1V7.2h-1.1V6h5.02c1.56 0 2.42.9 2.42 1.96 0 .8-.45 1.37-1.4 1.74l1.32 2.1h1.04V13z"/><path fill="#000" d="M109.2 11.8h.97V7.2h-.97V6h7.2v2.22h-1.56V7.2h-2.54v1.6h2.05v1.18h-2.05v1.83h2.54v-1.03h1.56V13h-7.2z"/><path fill="#000" d="M120.1 10.58h1.5c-.03.74.6 1.24 1.37 1.24.54 0 .98-.32.98-.73 0-1.26-3.95-1.1-3.95-3.24 0-1.33 1.3-1.86 2.4-1.86.7 0 1.26.2 1.63.64h.03v-.57h1.5v2.08h-1.5c-.12-.63-.6-1-1.3-1-.5 0-.87.22-.87.54 0 1.1 4.1.85 4.1 3.26 0 1.64-1.64 2.04-2.6 2.04-.77 0-1.38-.22-1.77-.66h-.03v.57h-1.5V10.6z"/><mask id="b"><use xlink:href="#a"/></mask><path fill="#000" d="M39.6 15h.6V2h-.6z" mask="url(#b)"/></g></g></g></svg>